<svg width="512" height="512" viewBox="0 0 512 512" fill="none" xmlns="http://www.w3.org/2000/svg">
<path d="M478.725 417.833C466.592 389.092 448.984 362.986 426.882 340.969C404.848 318.888 378.746 301.283 350.018 289.126C349.76 288.997 349.503 288.933 349.246 288.804C389.318 259.859 415.368 212.712 415.368 159.518C415.368 71.397 343.971 0 255.851 0C167.73 0 96.3333 71.397 96.3333 159.518C96.3333 212.712 122.384 259.859 162.456 288.868C162.199 288.997 161.941 289.061 161.684 289.19C132.868 301.347 107.011 318.778 84.8197 341.033C62.7387 363.068 45.1336 389.17 32.9765 417.897C21.0334 446.022 14.5922 476.176 14.0016 506.726C13.9844 507.412 14.1049 508.095 14.3558 508.734C14.6067 509.374 14.983 509.956 15.4625 510.448C15.9421 510.939 16.5151 511.33 17.148 511.596C17.7808 511.863 18.4606 512 19.1473 512H57.7403C60.5705 512 62.8217 509.749 62.886 506.983C64.1725 457.327 84.1122 410.822 119.36 375.574C155.831 339.104 204.265 319.035 255.851 319.035C307.437 319.035 355.871 339.104 392.341 375.574C427.59 410.822 447.529 457.327 448.816 506.983C448.88 509.813 451.131 512 453.961 512H492.554C493.241 512 493.921 511.863 494.554 511.596C495.187 511.33 495.76 510.939 496.239 510.448C496.719 509.956 497.095 509.374 497.346 508.734C497.597 508.095 497.717 507.412 497.7 506.726C497.057 475.98 490.689 446.07 478.725 417.833V417.833ZM255.851 270.151C226.327 270.151 198.54 258.637 177.636 237.733C156.731 216.828 145.218 189.041 145.218 159.518C145.218 129.994 156.731 102.207 177.636 81.3025C198.54 60.398 226.327 48.8844 255.851 48.8844C285.374 48.8844 313.161 60.398 334.066 81.3025C354.97 102.207 366.484 129.994 366.484 159.518C366.484 189.041 354.97 216.828 334.066 237.733C313.161 258.637 285.374 270.151 255.851 270.151Z" fill="#E2B038"/>
</svg>
