<svg width="512" height="512" viewBox="0 0 512 512" fill="none" xmlns="http://www.w3.org/2000/svg">
<path d="M423.007 141.388L305.248 23.3081C299.014 16.8827 291.553 11.7743 283.308 8.28592C275.062 4.79749 266.201 3 257.248 3C248.295 3 239.434 4.79749 231.188 8.28592C222.943 11.7743 215.482 16.8827 209.248 23.3081L91.1686 141.388L256.608 223.947L423.007 141.388ZM468.191 189.068L491.551 212.427C498.017 218.639 503.161 226.092 506.675 234.34C510.189 242.589 512 251.462 512 260.427C512 269.393 510.189 278.266 506.675 286.514C503.161 294.763 498.017 302.216 491.551 308.427L303.371 498.464C298.91 503.027 293.719 506.812 288.011 509.664V279.307L468.191 189.068ZM43.8087 189.068L20.4488 212.427C13.9833 218.639 8.83916 226.092 5.32523 234.34C1.81131 242.589 0 251.462 0 260.427C0 269.393 1.81131 278.266 5.32523 286.514C8.83916 294.763 13.9833 302.216 20.4488 308.427L208.651 498.464C213.131 503.029 218.315 506.826 224.011 509.664V279.307L43.8087 189.068Z" fill="white"/>
</svg>
