<svg width="512" height="512" viewBox="0 0 512 512" fill="none" xmlns="http://www.w3.org/2000/svg">
<path d="M158 60V354C158 366.996 163.162 379.459 172.352 388.648C181.541 397.838 194.004 403 207 403H403C415.996 403 428.459 397.838 437.648 388.648C446.838 379.459 452 366.996 452 354V139.429C451.999 132.901 450.694 126.439 448.161 120.423C445.629 114.407 441.919 108.957 437.251 104.394L356.034 24.965C346.879 16.0141 334.586 11.0016 321.783 11H207C194.004 11 181.541 16.1625 172.352 25.3518C163.162 34.541 158 47.0044 158 60V60Z" stroke="#E2B038" stroke-width="22" stroke-linecap="round" stroke-linejoin="round"/>
<path d="M354 403V452C354 464.996 348.838 477.459 339.648 486.648C330.459 495.838 317.996 501 305 501H109C96.0044 501 83.541 495.838 74.3518 486.648C65.1625 477.459 60 464.996 60 452V182.5C60 169.504 65.1625 157.041 74.3518 147.852C83.541 138.662 96.0044 133.5 109 133.5H158" stroke="#E2B038" stroke-width="22" stroke-linecap="round" stroke-linejoin="round"/>
</svg>
