<svg width="512" height="512" viewBox="0 0 512 512" fill="none" xmlns="http://www.w3.org/2000/svg">
<path d="M51 57.6C51 42.3235 57.0686 27.6727 67.8707 16.8706C78.6727 6.06855 93.3235 0 108.6 0H217.502V121.549C217.502 129.113 218.992 136.603 221.887 143.591C224.782 150.58 229.024 156.929 234.373 162.278C245.175 173.08 259.826 179.149 275.102 179.149H396.6V390.4C396.6 405.676 390.531 420.327 379.729 431.129C368.927 441.931 354.276 448 339 448H108.6C93.3235 448 78.6727 441.931 67.8707 431.129C57.0686 420.327 51 405.676 51 390.4V57.6ZM147 243.2C141.908 243.2 137.024 245.223 133.424 248.824C129.823 252.424 127.8 257.308 127.8 262.4C127.8 267.492 129.823 272.376 133.424 275.976C137.024 279.577 141.908 281.6 147 281.6C152.092 281.6 156.976 279.577 160.576 275.976C164.177 272.376 166.2 267.492 166.2 262.4C166.2 257.308 164.177 252.424 160.576 248.824C156.976 245.223 152.092 243.2 147 243.2V243.2ZM127.8 339.2C127.8 344.292 129.823 349.176 133.424 352.776C137.024 356.377 141.908 358.4 147 358.4C152.092 358.4 156.976 356.377 160.576 352.776C164.177 349.176 166.2 344.292 166.2 339.2C166.2 334.108 164.177 329.224 160.576 325.624C156.976 322.023 152.092 320 147 320C141.908 320 137.024 322.023 133.424 325.624C129.823 329.224 127.8 334.108 127.8 339.2V339.2ZM204.6 262.4C204.6 272.998 213.202 281.6 223.8 281.6H301.982C307.075 281.6 311.958 279.577 315.559 275.976C319.16 272.376 321.182 267.492 321.182 262.4C321.182 257.308 319.16 252.424 315.559 248.824C311.958 245.223 307.075 243.2 301.982 243.2H223.8C218.708 243.2 213.824 245.223 210.224 248.824C206.623 252.424 204.6 257.308 204.6 262.4ZM223.8 320C218.708 320 213.824 322.023 210.224 325.624C206.623 329.224 204.6 334.108 204.6 339.2C204.6 344.292 206.623 349.176 210.224 352.776C213.824 356.377 218.708 358.4 223.8 358.4H301.982C307.075 358.4 311.958 356.377 315.559 352.776C319.16 349.176 321.182 344.292 321.182 339.2C321.182 334.108 319.16 329.224 315.559 325.624C311.958 322.023 307.075 320 301.982 320H223.8ZM255.902 121.549V11.9808C257.848 13.4656 259.742 15.104 261.483 16.8704L379.73 135.117C381.522 136.909 383.16 138.778 384.67 140.749H275.102C270.01 140.749 265.127 138.726 261.526 135.125C257.925 131.525 255.902 126.641 255.902 121.549V121.549ZM118.302 473.6C122.272 484.829 129.626 494.551 139.349 501.428C149.073 508.305 160.69 511.998 172.6 512H339C354.969 512 370.781 508.855 385.534 502.744C400.288 496.633 413.693 487.676 424.984 476.384C436.276 465.093 445.233 451.688 451.344 436.934C457.455 422.181 460.6 406.369 460.6 390.4V239.846C460.597 232.28 459.103 224.789 456.204 217.801C453.305 210.812 449.057 204.463 443.704 199.117L422.2 177.587V390.4C422.2 412.466 413.434 433.628 397.831 449.231C382.228 464.834 361.066 473.6 339 473.6H118.302Z" fill="white"/>
</svg>
