<svg width="512" height="512" viewBox="0 0 512 512" fill="none" xmlns="http://www.w3.org/2000/svg">
<path d="M256 0C205.368 0 155.873 15.0141 113.774 43.1438C71.6751 71.2734 38.863 111.255 19.487 158.033C0.11092 204.811 -4.95873 256.284 4.91908 305.943C14.7969 355.602 39.1785 401.217 74.9808 437.019C110.783 472.821 156.398 497.203 206.057 507.081C255.716 516.959 307.189 511.889 353.967 492.513C400.745 473.137 440.727 440.325 468.856 398.226C496.986 356.127 512 306.632 512 256C511.923 188.128 484.926 123.059 436.934 75.0662C388.941 27.0736 323.872 0.0774349 256 0V0ZM256 475.428C197.804 475.428 141.991 452.31 100.841 411.159C59.6898 370.009 36.5715 314.196 36.5715 256C36.5715 197.804 59.6898 141.991 100.841 100.841C141.991 59.6897 197.804 36.5714 256 36.5714V256L411.081 411.081C390.743 431.492 366.574 447.683 339.96 458.726C313.347 469.769 284.814 475.445 256 475.428Z" fill="white"/>
</svg>
