<svg width="80" height="80" viewBox="0 0 80 80" fill="none" xmlns="http://www.w3.org/2000/svg">
  <path d="M35.0001 9.99982C31.1851 9.99982 27.6251 11.0648 24.5901 12.9198C24.2764 11.2419 23.7046 9.62267 22.8951 8.11982C26.7015 6.01332 30.9918 4.9366 35.3419 4.99608C39.692 5.05557 43.9512 6.24919 47.6987 8.45899C51.4462 10.6688 54.5521 13.8182 56.7095 17.5961C58.867 21.3739 60.0012 25.6494 60.0001 29.9999H72.5052C74.4934 30.0012 76.3998 30.792 77.8053 32.1983C79.2107 33.6047 80.0002 35.5116 80.0002 37.4999V67.5C80.0002 69.4891 79.21 71.3968 77.8035 72.8033C76.397 74.2098 74.4893 75 72.5002 75H42.5001C40.511 75 38.6033 74.2098 37.1968 72.8033C35.7903 71.3968 35.0001 69.4891 35.0001 67.5V54.9999C31.522 55.0043 28.0815 54.2805 24.9001 52.8749C24.9651 51.1749 25.0001 49.3899 25.0001 47.4999V47.3249C27.9401 49.0249 31.3551 49.9999 35.0001 49.9999V37.4999C35.0001 35.5108 35.7903 33.6031 37.1968 32.1966C38.6033 30.7901 40.511 29.9999 42.5001 29.9999H55.0001C55.0001 24.6955 52.893 19.6084 49.1423 15.8577C45.3915 12.107 40.3044 9.99982 35.0001 9.99982ZM59.5001 34.9999C58.5167 39.8027 56.1444 44.211 52.6778 47.6776C49.2112 51.1442 44.8029 53.5165 40.0001 54.4999V67.5C40.0001 68.163 40.2635 68.7989 40.7323 69.2677C41.2012 69.7366 41.8371 70 42.5001 70H72.5002C73.1632 70 73.7991 69.7366 74.268 69.2677C74.7368 68.7989 75.0002 68.163 75.0002 67.5V37.4999C75.0002 36.8368 74.7368 36.201 74.268 35.7321C73.7991 35.2633 73.1632 34.9999 72.5002 34.9999H59.5001ZM54.3701 34.9999H42.5001C41.8371 34.9999 41.2012 35.2633 40.7323 35.7321C40.2635 36.201 40.0001 36.8368 40.0001 37.4999V49.3699C43.4592 48.4738 46.6156 46.6688 49.1423 44.1421C51.669 41.6154 53.474 38.459 54.3701 34.9999ZM12.905 0.624801C13.3201 0.987812 13.6034 1.47784 13.711 2.01862C13.8186 2.55939 13.7445 3.12057 13.5 3.61481C13.4577 3.76109 13.4358 3.91253 13.435 4.06481C13.435 4.37981 13.515 4.97981 14.27 5.72981C14.635 6.09481 14.915 6.35482 15.22 6.63982C15.47 6.86982 15.735 7.10982 16.07 7.43982C16.72 8.05982 17.405 8.78982 18.02 9.70482C19.295 11.6198 20 14.0148 20 17.4998C20 21.7649 18.42 25.3999 15.955 27.6299L16.275 27.9999C17.675 29.7199 18.49 31.9499 19 34.1499C20.0001 38.4999 20 43.7299 20 47.3749V47.4999C20 61.435 18.105 69.34 16.02 73.86C14.97 76.135 13.855 77.585 12.89 78.495C12.4977 78.8714 12.0651 79.2034 11.6 79.485C11.3871 79.6132 11.1648 79.7252 10.935 79.82C10.935 79.82 10.37 80 10 80C9.63002 80 9.06502 79.82 9.06502 79.82C8.83276 79.7307 8.60999 79.6185 8.40002 79.485C7.93496 79.2034 7.50235 78.8714 7.11002 78.495C6.14501 77.58 5.03001 76.135 3.98001 73.86C1.895 69.34 0 61.435 0 47.4999V47.3749C0 43.7249 2.23518e-07 38.4999 1 34.1499C1.51 31.9499 2.32501 29.7199 3.72501 27.9999C3.82501 27.8749 3.93501 27.7499 4.04501 27.6299C1.58 25.3999 0 21.7649 0 17.4998C0 15.8698 0.435001 13.9248 1.035 12.1298C1.635 10.3298 2.47501 8.46982 3.44501 6.96982C4.60001 5.01981 6.22502 3.38481 7.48502 2.28481C8.17581 1.67728 8.89672 1.10489 9.64502 0.569801L9.79502 0.469801L9.84002 0.4348L9.85502 0.424801L9.86502 0.419801C10.3235 0.114184 10.8701 -0.0314055 11.4199 0.00566696C11.9696 0.0427394 12.4917 0.260396 12.905 0.624801ZM10 24.9999C11.935 24.9949 15 22.8499 15 17.4998C15 14.7348 14.455 13.3798 13.855 12.4798C13.4902 11.9542 13.0694 11.4697 12.6 11.0348L11.98 10.4548C11.575 10.0748 11.1 9.63482 10.73 9.26982C10.1832 8.72866 9.71373 8.11452 9.33502 7.44482C8.69858 8.11402 8.13847 8.85189 7.66502 9.64482C6.96502 10.7198 6.28502 12.1948 5.78001 13.7148C5.26001 15.2648 5.00001 16.6348 5.00001 17.4998C5.00001 22.8599 8.07502 24.9999 10 24.9999H10.01H10ZM7.60002 31.1599C6.89002 32.0249 6.30002 33.4049 5.87001 35.2749C5.01001 39.0149 5.00001 43.7149 5.00001 47.4999C5.00001 61.065 6.85502 68.16 8.52002 71.765C9.07002 72.95 9.58502 73.74 10 74.265C10.5908 73.4933 11.0876 72.6541 11.48 71.765C13.145 68.16 15 61.065 15 47.4999C15 43.7149 14.99 39.0149 14.125 35.2749C13.695 33.4049 13.105 32.0249 12.4 31.1599C12.1242 30.7862 11.7616 30.4853 11.3434 30.2832C10.9253 30.0811 10.4642 29.9838 10 29.9999H9.99002C9.52746 29.985 9.06823 30.0829 8.65188 30.285C8.23553 30.487 7.87454 30.7873 7.60002 31.1599Z" fill="#0096FF"/>
</svg>
