<svg width="512" height="512" viewBox="0 0 512 512" fill="none" xmlns="http://www.w3.org/2000/svg">
<path d="M170.666 497.493V379.733L82.7731 444.586C107.52 467.626 137.386 485.546 170.666 497.493V497.493ZM341.333 497.493C374.613 485.546 404.48 467.626 429.226 444.586L341.333 378.88V497.493V497.493ZM14.5064 341.333C17.0664 349.866 20.4797 357.546 24.7464 366.08L58.0264 341.333H14.5064ZM453.973 341.333L487.253 366.08C490.666 358.4 494.08 349.866 497.493 341.333H453.973Z" fill="#2A5F9E"/>
<path d="M183.466 307.2H5.11967C7.67967 319.147 11.093 330.24 14.5063 341.334H58.0263L24.7463 366.08C31.573 380.587 39.253 393.387 48.6397 406.187L136.533 341.334H170.666V358.4L70.8263 431.787L82.773 443.734L170.666 379.734V497.494C181.76 501.76 192.853 504.32 204.8 506.88V307.2H183.466ZM506.88 307.2H307.2V506.88C319.146 504.32 330.24 500.907 341.333 497.494V379.734L429.226 443.734C441.173 432.64 451.413 420.694 461.653 407.894L370.346 341.334H428.373L480.426 379.734C482.986 375.467 485.546 370.347 487.253 366.08L453.973 341.334H497.493C500.906 330.24 504.32 319.147 506.88 307.2" fill="white"/>
<path d="M48.6396 406.186C55.4662 415.573 62.2929 424.106 69.9729 432.64L170.666 359.253V342.186H136.533L48.6396 406.186ZM371.2 341.333L462.506 407.893C465.92 403.626 468.48 399.36 471.893 395.093C472.746 394.24 472.746 393.386 473.6 393.386C476.16 389.12 479.573 384 482.133 379.733L428.373 341.333H371.2Z" fill="#ED4C5C"/>
<path d="M341.333 14.5071V132.267L429.226 67.4138C404.48 44.3738 374.613 26.4538 341.333 14.5071ZM170.666 14.5071C137.386 26.4538 107.52 44.3738 82.7731 67.4138L170.666 133.12V14.5071ZM497.493 170.667C494.933 162.134 491.52 154.454 487.253 145.92L453.973 170.667H497.493V170.667ZM58.0264 170.667L24.7464 145.92C21.3331 154.454 17.9197 162.134 14.5064 170.667H58.0264Z" fill="#2A5F9E"/>
<path d="M328.533 204.8H506.026C503.466 192.853 500.053 181.76 496.64 170.667H453.12L486.4 145.92C479.573 131.413 471.893 118.613 462.506 105.813L375.466 170.667H341.333V153.6L441.173 80.2133L429.226 68.2667L341.333 132.267V14.5067C330.24 10.24 319.146 7.68003 307.2 5.12003V204.8H328.533ZM5.11967 204.8H204.8V5.12003C192.853 7.68003 181.76 11.0934 170.666 14.5067V132.267L82.773 68.2667C70.8263 79.36 60.5863 91.3067 50.3463 104.107L141.653 170.667H83.6264L31.573 132.267C29.013 136.533 26.453 141.653 24.7463 145.92L58.0263 170.667H14.5063C11.093 181.76 7.67967 192.853 5.11967 204.8Z" fill="white"/>
<path d="M463.36 105.813C456.533 96.4268 449.707 87.8934 442.027 79.3601L341.333 152.747V169.813H375.467L463.36 105.813V105.813ZM140.8 170.667L50.3465 104.107C46.9332 108.373 44.3732 112.64 40.9598 116.907C40.1065 117.76 40.1065 118.613 39.2532 118.613C36.6932 122.88 33.2798 128 30.7198 132.267L82.7732 170.667H140.8Z" fill="#ED4C5C"/>
<path d="M506.88 204.8H307.2V5.12C290.987 1.70667 273.92 0 256 0C238.08 0 221.013 1.70667 204.8 5.12V204.8H5.12C1.70667 221.013 0 238.08 0 256C0 273.92 1.70667 290.987 5.12 307.2H204.8V506.88C221.013 510.293 238.08 512 256 512C273.92 512 290.987 510.293 307.2 506.88V307.2H506.88C510.293 290.987 512 273.92 512 256C512 238.08 510.293 221.013 506.88 204.8Z" fill="#ED4C5C"/>
</svg>
