<svg width="512" height="512" viewBox="0 0 512 512" fill="none" xmlns="http://www.w3.org/2000/svg">
<g clip-path="url(#clip0_4_10)">
<path d="M170.667 256C170.667 226.005 172.544 197.333 176 170.667H336C339.414 197.333 341.334 226.005 341.334 256C341.334 285.995 339.456 314.667 336 341.333H176C172.411 313.031 170.629 284.529 170.667 256ZM132.992 341.333C129.635 313.013 127.968 284.518 128 256C128 226.432 129.707 197.76 132.992 170.667H14.5071C4.85486 198.079 -0.0510367 226.938 0.00040031 256C0.00040031 285.909 5.1204 314.624 14.5497 341.333H132.992ZM34.2617 384H139.648C144.982 411.947 152.107 437.504 160.683 459.776C166.4 474.667 172.886 488.448 180.182 500.608C118.623 481.444 66.531 439.816 34.2617 384V384ZM183.126 384H328.875C324.703 404.582 318.896 424.799 311.51 444.459C302.422 468.096 292.096 485.803 281.728 497.195C271.36 508.587 262.656 512 256 512C249.344 512 240.64 508.587 230.272 497.195C219.904 485.803 209.579 468.096 200.491 444.459C193.105 424.799 187.298 404.582 183.126 384V384ZM372.395 384C367.599 409.827 360.547 435.183 351.318 459.776C346.005 473.922 339.481 487.584 331.819 500.608C393.378 481.444 445.47 439.816 477.739 384H372.352H372.395ZM497.408 341.333C507.09 313.926 512.024 285.067 512 256C512.038 226.935 507.118 198.077 497.451 170.667H379.008C382.251 197.76 384 226.432 384 256C384 285.568 382.294 314.24 379.008 341.333H497.451H497.408ZM311.552 67.5413C318.336 85.2053 324.224 105.515 328.918 128H183.126C187.819 105.515 193.707 85.2053 200.491 67.5413C209.579 43.904 219.904 26.1973 230.272 14.8053C240.64 3.41333 249.344 0 256 0C262.656 0 271.36 3.41333 281.728 14.8053C292.096 26.1973 302.422 43.904 311.51 67.5413H311.552ZM372.395 128H477.782C445.502 72.1759 393.393 30.5467 331.819 11.392C339.072 23.552 345.6 37.3333 351.318 52.224C359.894 74.496 367.019 100.011 372.395 128V128ZM34.2617 128H139.648C144.432 102.175 151.47 76.8193 160.683 52.224C166.4 37.3333 172.886 23.552 180.182 11.392C118.623 30.5561 66.531 72.1843 34.2617 128V128Z" fill="white"/>
</g>
<defs>
<clipPath id="clip0_4_10">
<rect width="512" height="512" fill="white"/>
</clipPath>
</defs>
</svg>
