<svg width="512" height="512" viewBox="0 0 512 512" fill="none" xmlns="http://www.w3.org/2000/svg">
<path d="M0 256C0 367.786 71.68 462.506 170.667 497.493V14.5062C71.68 49.4929 0 144.213 0 256Z" fill="#428BC1"/>
<path d="M512 256C512 144.213 441.173 49.4929 341.333 14.5062V497.493C441.173 462.506 512 367.786 512 256" fill="#ED4C5C"/>
<path d="M170.667 497.493C197.12 506.88 226.133 512 256 512C285.867 512 314.88 506.88 341.333 497.493V14.5067C314.88 5.12 286.72 0 256 0C225.28 0 197.12 5.12 170.667 14.5067V497.493" fill="white"/>
</svg>
