<svg width="80" height="80" viewBox="0 0 80 80" fill="none" xmlns="http://www.w3.org/2000/svg">
  <path d="M74.2857 51.4287H68.5714V57.143H74.2857V74.2859H5.71429V57.143H34.2857V51.4287H5.71429C4.19923 51.4302 2.74665 52.0327 1.67535 53.1041C0.604038 54.1754 0.00151279 55.6279 0 57.143V74.2859C0.00151279 75.8009 0.604038 77.2535 1.67535 78.3248C2.74665 79.3961 4.19923 79.9986 5.71429 80.0001H74.2857C75.8008 79.9986 77.2533 79.3961 78.3247 78.3248C79.396 77.2535 79.9985 75.8009 80 74.2859V57.143C79.9985 55.6279 79.396 54.1754 78.3247 53.1041C77.2533 52.0327 75.8008 51.4302 74.2857 51.4287Z" fill="#0096FF"/>
  <path d="M14.2849 68.5717C15.8628 68.5717 17.142 67.2925 17.142 65.7146C17.142 64.1366 15.8628 62.8574 14.2849 62.8574C12.7069 62.8574 11.4277 64.1366 11.4277 65.7146C11.4277 67.2925 12.7069 68.5717 14.2849 68.5717Z" fill="#0096FF"/>
  <path d="M80.0003 17.1429H57.1431V34.2857H40.0003V57.1429H62.8574V40H80.0003V17.1429ZM57.1431 51.4286H45.7146V40H57.1431V51.4286ZM74.286 34.2857H62.8574V22.8571H74.286V34.2857ZM45.7146 22.8571H22.8574V0H45.7146V22.8571ZM28.5717 17.1429H40.0003V5.71429H28.5717V17.1429Z" fill="#0096FF"/>
</svg>
