<svg width="60" height="80" viewBox="0 0 60 80" fill="none" xmlns="http://www.w3.org/2000/svg">
  <path d="M48.5706 14.2856H59.9992V25.7142H48.5706V14.2856ZM48.5706 31.4285H59.9992V42.8571H48.5706V31.4285ZM31.4277 14.2856H42.8563V25.7142H31.4277V14.2856ZM31.4277 31.4285H42.8563V42.8571H31.4277V31.4285Z" fill="#0096FF"/>
  <path d="M24.2857 68.5714C26.6526 68.5714 28.5714 66.6526 28.5714 64.2857C28.5714 61.9188 26.6526 60 24.2857 60C21.9188 60 20 61.9188 20 64.2857C20 66.6526 21.9188 68.5714 24.2857 68.5714Z" fill="#0096FF"/>
  <path d="M42.8571 80H5.71429C4.19923 79.9985 2.74666 79.396 1.67535 78.3247C0.604038 77.2533 0.00151279 75.8008 0 74.2857V5.71429C0.00151279 4.19923 0.604038 2.74665 1.67535 1.67535C2.74666 0.604038 4.19923 0.00151279 5.71429 0H42.8571V5.71429H5.71429V74.2857H42.8571V51.4286H48.5714V74.2857C48.5699 75.8008 47.9674 77.2533 46.8961 78.3247C45.8248 79.396 44.3722 79.9985 42.8571 80Z" fill="#0096FF"/>
</svg>
