<svg width="512" height="512" viewBox="0 0 512 512" fill="none" xmlns="http://www.w3.org/2000/svg">
<g clip-path="url(#clip0_4_44)">
<path d="M256 512C367.786 512 462.506 440.32 497.493 341.333L14.5063 341.333C49.4929 440.32 144.213 512 256 512Z" fill="#20478B"/>
<path d="M256 -6.01471e-05C144.213 -5.52607e-05 49.4929 70.8266 14.5063 170.667L497.493 170.667C462.506 70.8266 367.786 -6.50334e-05 256 -6.01471e-05" fill="#AE1F28"/>
<path d="M497.493 341.333C506.88 314.88 512 285.867 512 256C512 226.133 506.88 197.12 497.493 170.667L14.5067 170.667C5.12001 197.12 1.01859e-05 225.28 1.15288e-05 256C1.28716e-05 286.72 5.12001 314.88 14.5067 341.333L497.493 341.333" fill="white"/>
</g>
<defs>
<clipPath id="clip0_4_44">
<rect width="512" height="512" fill="white"/>
</clipPath>
</defs>
</svg>
