<svg width="512" height="512" viewBox="0 0 512 512" fill="none" xmlns="http://www.w3.org/2000/svg">
<path d="M2.98285e-05 64C2.98285e-05 47.0261 6.59303 30.7475 18.3286 18.7452C30.0642 6.74284 45.9811 0 62.5778 0H369.778C386.374 0 402.291 6.74284 414.027 18.7452C425.763 30.7475 432.356 47.0261 432.356 64V93.2771C453.956 94.7531 474.2 104.57 488.988 120.74C503.776 136.91 512.002 158.223 512 180.364V424.727C512 447.873 503.01 470.072 487.006 486.438C471.003 502.805 449.298 512 426.667 512H85.4244C62.7926 512 41.0877 502.805 25.0846 486.438C9.08151 470.072 0.0910509 447.873 0.0910509 424.727V180.364H2.98285e-05V69.8182H0.250339C0.0817067 67.8836 -0.0018127 65.9423 2.98285e-05 64V64ZM398.222 64C398.222 47.9418 385.479 34.9091 369.778 34.9091H62.5778C55.0339 34.9091 47.7989 37.974 42.4645 43.4296C37.1302 48.8852 34.1334 56.2846 34.1334 64C34.1334 71.7154 37.1302 79.1148 42.4645 84.5704C47.7989 90.026 55.0339 93.0909 62.5778 93.0909H398.222V64ZM358.4 302.545C353.874 302.545 349.533 304.384 346.332 307.658C343.131 310.931 341.333 315.371 341.333 320C341.333 324.629 343.131 329.069 346.332 332.342C349.533 335.616 353.874 337.455 358.4 337.455H415.289C419.815 337.455 424.156 335.616 427.357 332.342C430.557 329.069 432.356 324.629 432.356 320C432.356 315.371 430.557 310.931 427.357 307.658C424.156 304.384 419.815 302.545 415.289 302.545H358.4Z" fill="white"/>
</svg>
